<?xml version="1.0" standalone="no"?>
<!DOCTYPE svg PUBLIC "-//W3C//DTD SVG 20010904//EN"
 "http://www.w3.org/TR/2001/REC-SVG-20010904/DTD/svg10.dtd">
<svg version="1.0" xmlns="http://www.w3.org/2000/svg"
 width="1280.000000pt" height="792.000000pt" viewBox="0 0 1280.000000 792.000000"
 preserveAspectRatio="xMidYMid meet">

<g transform="translate(0.000000,792.000000) scale(0.100000,-0.100000)"
fill="#000000" stroke="none">
<path d="M6685 7909 c-443 -69 -775 -505 -775 -1019 0 -356 130 -734 412
-1198 39 -64 85 -141 102 -169 17 -29 34 -53 38 -53 3 0 25 22 48 50 l42 50
-70 112 c-192 311 -286 499 -363 726 -89 262 -108 559 -49 771 87 311 329 560
600 617 298 63 665 -102 973 -438 124 -136 218 -251 215 -265 -2 -7 -62 -83
-134 -170 -73 -87 -255 -307 -405 -489 -151 -182 -371 -447 -489 -590 -118
-142 -291 -351 -384 -464 -93 -113 -207 -250 -254 -305 -46 -55 -86 -105 -89
-112 -2 -6 23 -44 57 -85 34 -40 71 -90 83 -110 11 -21 23 -38 26 -37 3 1 91
91 195 201 176 185 191 198 204 181 26 -33 170 -337 206 -434 215 -583 219
-1132 11 -1576 -145 -310 -391 -563 -680 -699 -191 -91 -379 -123 -594 -104
-224 20 -394 64 -821 215 -463 163 -664 209 -920 208 -167 0 -260 -15 -378
-59 -336 -126 -544 -369 -568 -661 -5 -70 0 -129 22 -230 l6 -33 -61 0 -61 0
56 -54 55 -53 -3 -364 c-4 -408 -7 -427 -70 -454 -31 -13 -26 -14 82 -14 74 0
107 3 94 9 -34 13 -62 57 -74 113 -6 32 -9 170 -8 366 l3 313 77 -93 c43 -52
104 -130 136 -175 33 -44 102 -129 153 -189 223 -256 309 -377 383 -536 62
-133 77 -188 86 -319 l8 -115 -2 130 c-2 116 -6 140 -34 222 -17 51 -47 124
-66 162 l-36 70 3 448 c2 491 2 493 62 519 27 12 20 13 -80 14 l-110 0 31 -19
c54 -33 58 -56 62 -396 3 -268 1 -308 -11 -295 -13 14 -171 203 -440 525 -60
72 -124 148 -142 170 -41 47 -50 91 -49 235 1 86 6 117 26 172 40 106 86 174
177 259 67 63 106 90 195 134 142 70 238 95 392 102 112 5 313 -10 341 -25 7
-5 -19 -44 -75 -112 -48 -58 -174 -211 -280 -340 -156 -189 -178 -218 -110
-150 69 69 520 542 549 574 18 20 203 -36 601 -183 135 -50 300 -106 365 -125
479 -141 860 -113 1201 88 126 75 201 134 312 246 223 226 377 517 446 844 31
149 44 458 25 626 -38 344 -135 645 -324 1013 l-81 157 75 78 c68 69 609 637
1118 1172 102 107 235 247 296 310 238 247 285 300 298 333 45 106 25 203 -57
283 -61 60 -118 80 -202 71 -85 -9 -128 -41 -248 -186 -60 -72 -111 -131 -115
-131 -3 1 -35 38 -71 83 -223 281 -422 454 -648 563 -162 79 -370 116 -517 93z
m1664 -648 c18 -33 -23 -138 -92 -241 -128 -188 -376 -425 -483 -460 -42 -14
-74 1 -74 35 0 62 106 247 208 364 l39 44 57 -71 c32 -40 61 -72 65 -72 4 0
17 13 28 28 l21 28 -55 68 c-66 80 -65 81 32 166 128 110 231 155 254 111z"/>
<path d="M8240 6725 c-27 -29 -22 -38 59 -109 256 -227 582 -380 951 -448 94
-17 155 -21 335 -21 239 -1 354 14 538 68 95 27 251 85 245 90 -2 2 -48 -12
-102 -31 -223 -78 -516 -114 -754 -95 -455 38 -859 208 -1163 490 l-86 80 -23
-24z"/>
<path d="M4916 5329 c-485 -67 -900 -397 -1073 -854 -63 -165 -77 -250 -78
-465 0 -207 5 -245 55 -410 73 -240 254 -499 454 -650 54 -41 58 -42 74 -26
16 17 15 19 -18 44 -340 263 -520 624 -520 1043 0 258 71 490 218 714 65 100
249 281 355 349 393 256 867 285 1282 78 293 -146 520 -400 635 -711 98 -266
99 -597 4 -863 -106 -293 -327 -555 -589 -695 -343 -184 -723 -212 -1078 -79
-78 30 -101 35 -113 25 -8 -6 -14 -15 -14 -19 0 -13 148 -71 244 -95 463 -117
938 10 1271 339 111 111 178 200 244 326 61 117 85 178 116 300 71 278 49 572
-61 839 -169 406 -543 712 -978 797 -98 19 -336 26 -430 13z"/>
<path d="M4877 5174 c-296 -53 -575 -231 -750 -476 -148 -207 -221 -438 -221
-693 1 -323 119 -610 344 -835 89 -89 177 -157 188 -145 4 4 -4 16 -18 26
-103 82 -175 148 -224 208 -112 136 -190 292 -238 471 -29 108 -36 363 -14
483 69 363 294 665 622 833 274 139 601 163 896 64 177 -59 311 -143 449 -280
409 -404 463 -1033 128 -1503 -296 -416 -842 -591 -1323 -424 -53 19 -99 30
-102 25 -8 -12 76 -45 191 -76 92 -24 115 -26 290 -26 171 1 199 3 285 26 524
141 877 578 897 1113 13 335 -107 638 -346 876 -184 183 -388 290 -635 334
-109 19 -313 18 -419 -1z"/>
<path d="M4920 5103 c-295 -50 -579 -230 -740 -468 -300 -445 -251 -1025 119
-1403 60 -62 179 -159 185 -150 1 1 78 95 171 208 93 113 185 225 205 250 26
31 39 59 44 92 23 152 211 216 313 106 29 -31 53 -89 53 -130 0 -76 -70 -158
-147 -174 -26 -5 -78 -54 -243 -227 -116 -121 -207 -223 -203 -227 4 -4 37
-17 73 -28 321 -103 676 -53 957 134 361 240 550 678 477 1105 -79 458 -431
817 -887 904 -74 14 -312 19 -377 8z m257 -542 c105 -48 133 -190 55 -283 -72
-86 -224 -75 -287 20 -40 60 -42 116 -8 181 48 92 144 125 240 82z m-410 -382
c61 -23 113 -99 113 -166 -1 -54 -32 -116 -75 -149 -30 -22 -50 -29 -99 -32
-53 -3 -66 0 -103 24 -113 75 -114 240 -1 308 47 28 115 34 165 15z m803 -19
c127 -65 127 -255 0 -320 -168 -86 -338 104 -234 262 48 74 153 99 234 58z"/>
<path d="M4894 3507 c-106 -128 -296 -358 -423 -512 -154 -186 -227 -281 -219
-286 7 -3 27 -9 45 -12 28 -5 36 -1 64 31 18 20 216 229 441 464 224 235 408
433 408 440 0 20 -37 76 -57 86 -62 32 -55 37 -259 -211z"/>
<path d="M5962 1728 c-40 -27 -70 -53 -67 -58 3 -5 -10 -44 -29 -87 -19 -43
-94 -215 -167 -383 -72 -168 -143 -320 -158 -339 -14 -19 -39 -40 -56 -47 -27
-12 -17 -13 95 -13 119 0 123 1 86 14 -21 7 -43 20 -48 27 -13 20 -4 98 18
143 l19 40 263 3 263 2 20 -45 c43 -98 32 -151 -36 -171 -35 -11 -16 -13 140
-13 157 0 176 1 150 13 -43 19 -64 62 -230 481 -80 204 -156 395 -168 426
l-23 56 -72 -49z m91 -373 c65 -162 117 -297 117 -300 0 -8 -500 -6 -500 3 0
13 255 592 261 592 3 0 58 -133 122 -295z"/>
<path d="M8843 1727 c-38 -26 -63 -49 -63 -60 0 -29 -319 -758 -347 -795 -14
-19 -39 -42 -57 -53 l-31 -19 120 0 120 0 -42 20 c-57 25 -62 52 -31 138 l25
67 266 3 267 2 16 -37 c20 -47 28 -104 20 -136 -5 -23 -32 -40 -81 -50 -11 -3
63 -5 165 -5 102 0 176 3 165 5 -28 7 -54 32 -75 74 -17 33 -309 764 -341 852
-7 20 -18 37 -24 36 -5 0 -38 -19 -72 -42z m97 -372 c62 -154 114 -286 117
-292 4 -10 -50 -13 -252 -13 -202 0 -256 3 -252 13 188 432 263 595 268 584 4
-6 57 -138 119 -292z"/>
<path d="M4077 1745 c-160 -44 -240 -190 -184 -337 20 -51 82 -115 145 -147
21 -11 94 -36 162 -56 137 -40 184 -61 218 -98 44 -47 50 -141 15 -211 -64
-125 -288 -123 -406 3 -44 47 -46 51 -71 173 0 4 -25 -32 -55 -78 -62 -99 -62
-100 38 -153 132 -70 326 -81 449 -26 185 83 231 293 92 419 -51 46 -115 75
-235 106 -118 30 -163 50 -207 92 -43 40 -63 103 -54 168 7 49 27 82 70 114
39 30 162 29 227 0 88 -41 149 -132 149 -223 0 -34 2 -32 56 54 40 62 54 93
48 103 -17 26 -119 81 -179 97 -71 18 -212 18 -278 0z"/>
<path d="M12327 1750 c-52 -13 -128 -53 -154 -82 -36 -38 -63 -109 -62 -163 0
-137 82 -226 256 -280 49 -14 116 -35 151 -46 120 -37 172 -93 172 -182 -1
-81 -35 -143 -95 -175 -47 -24 -168 -21 -229 7 -106 47 -155 106 -165 199 l-6
57 -58 -90 -58 -90 28 -23 c150 -122 447 -135 589 -27 43 33 91 116 100 171 8
55 -17 139 -55 185 -41 50 -128 93 -260 129 -156 42 -211 74 -247 142 -20 38
-18 135 4 178 36 73 149 100 252 61 105 -40 159 -108 170 -211 l5 -55 56 90
57 90 -21 23 c-12 13 -55 40 -95 59 -70 35 -80 37 -185 39 -62 2 -129 -1 -150
-6z"/>
<path d="M49 1738 c-4 -10 -45 -264 -43 -266 1 -2 17 27 35 65 64 128 146 183
276 183 l63 0 0 -429 c0 -486 4 -464 -80 -480 -32 -6 12 -9 150 -9 137 0 182
3 151 9 -86 17 -81 -15 -81 477 l0 434 94 -4 c83 -3 98 -7 130 -31 48 -37 68
-79 75 -153 l6 -62 41 134 41 134 -428 0 c-236 0 -429 -1 -430 -2z"/>
<path d="M984 1698 c13 -24 86 -203 161 -398 75 -195 148 -384 163 -420 14
-36 28 -78 31 -93 l6 -28 61 43 62 42 82 218 c46 120 86 218 89 218 8 0 196
-491 195 -508 -2 -13 -2 -13 88 46 27 17 43 39 57 76 83 219 282 719 298 751
24 46 47 70 83 84 19 7 -4 10 -90 10 l-115 0 36 -19 c63 -33 61 -53 -23 -270
-188 -484 -223 -570 -230 -553 -56 134 -278 740 -278 757 0 34 30 66 70 76 23
5 -18 8 -123 9 l-158 1 19 -27 c19 -26 152 -358 152 -378 1 -24 -164 -445
-171 -438 -18 19 -279 727 -279 757 0 37 23 63 66 76 19 5 -22 9 -124 9 l-153
1 25 -42z"/>
<path d="M2477 1729 c64 -19 63 -11 63 -460 0 -454 2 -442 -70 -459 -23 -5 25
-8 135 -8 105 0 157 3 136 8 -69 16 -66 -5 -66 460 0 465 -3 444 66 460 21 5
-28 8 -131 8 -118 0 -156 -2 -133 -9z"/>
<path d="M6584 1726 c21 -8 43 -21 47 -28 5 -7 9 -201 9 -430 0 -455 2 -441
-58 -454 -15 -3 -31 -7 -37 -9 -5 -2 69 -3 165 -3 129 0 165 2 136 9 -66 16
-66 15 -66 184 l0 152 138 2 c145 1 208 14 292 56 55 28 115 91 141 149 23 52
26 177 4 229 -22 53 -76 102 -142 128 -56 23 -69 24 -363 26 -273 2 -301 1
-266 -11z m522 -33 c51 -27 98 -80 115 -130 9 -23 14 -80 14 -143 0 -192 -46
-241 -230 -247 -56 -2 -126 2 -160 9 l-60 13 -3 263 -2 264 142 -4 c123 -3
149 -6 184 -25z"/>
<path d="M7484 1725 c21 -7 43 -20 47 -27 5 -7 9 -201 9 -430 0 -455 2 -441
-58 -454 -15 -3 -31 -7 -37 -9 -5 -2 67 -3 160 -3 96 0 159 3 144 7 -71 22
-69 16 -69 186 l0 155 138 -1 c189 0 298 34 375 120 55 61 70 97 75 184 6 100
-13 152 -75 207 -82 72 -128 80 -462 80 -256 -1 -282 -2 -247 -15z m522 -32
c54 -29 100 -83 116 -135 7 -24 13 -88 13 -143 0 -126 -23 -183 -89 -217 -53
-28 -201 -36 -296 -16 l-65 14 -3 263 -2 263 142 -4 c123 -3 149 -6 184 -25z"/>
<path d="M9467 1729 c64 -19 63 -12 63 -454 0 -300 -3 -406 -13 -425 -8 -15
-27 -29 -52 -36 -35 -11 -17 -12 130 -12 110 0 158 3 135 8 -66 16 -71 32 -68
214 l3 161 90 3 90 3 133 -185 c72 -101 132 -189 132 -195 0 -7 41 -11 122
-11 l121 0 -59 38 c-32 22 -77 61 -99 88 -51 61 -205 270 -205 276 0 3 18 10
41 17 92 28 169 95 203 176 22 51 20 150 -3 200 -24 52 -53 78 -126 112 l-60
28 -305 2 c-208 1 -295 -1 -273 -8z m525 -41 c74 -34 106 -81 121 -178 13 -85
-1 -189 -31 -229 -27 -38 -82 -61 -160 -68 -61 -5 -210 9 -248 24 -11 4 -14
48 -14 245 l0 240 138 -4 c123 -3 143 -6 194 -30z"/>
<path d="M10407 1729 c64 -18 63 -13 63 -441 0 -217 -4 -398 -9 -411 -6 -14
-29 -37 -53 -51 l-43 -26 343 0 c282 0 348 -3 371 -15 l29 -14 35 140 c19 78
32 137 27 133 -4 -5 -35 -44 -69 -86 -37 -47 -79 -88 -108 -105 -47 -27 -52
-28 -220 -31 l-173 -4 0 222 0 222 148 -4 c169 -4 200 -15 239 -84 l23 -39 0
134 0 135 -29 -45 c-41 -65 -69 -74 -236 -74 l-140 0 -3 218 -2 217 152 0
c139 0 157 -2 203 -24 48 -22 112 -82 150 -140 10 -14 19 -25 22 -23 2 2 -6
50 -18 106 l-22 101 -356 -1 c-236 -1 -345 -4 -324 -10z"/>
<path d="M11259 1730 c63 -15 61 3 61 -441 1 -223 -2 -413 -6 -422 -3 -10 -25
-28 -48 -42 l-41 -25 330 0 c283 0 334 -2 353 -16 18 -12 23 -13 27 -2 13 38
65 261 62 265 -3 2 -19 -18 -36 -45 -17 -27 -56 -72 -85 -100 -72 -68 -121
-82 -288 -82 l-128 0 0 429 c0 479 -2 464 70 481 23 5 -25 8 -135 8 -105 0
-157 -3 -136 -8z"/>
</g>
</svg>
